<svg xmlns="http://www.w3.org/2000/svg" version="1.1" xmlns:xlink="http://www.w3.org/1999/xlink" width="512" height="512" x="0" y="0" viewBox="0 0 64 64" style="enable-background:new 0 0 512 512" xml:space="preserve"><g><path d="M12.917 52.583a1.51 1.51 0 0 0 1.06-2.56c-9.903-9.508-9.903-26.538 0-36.045a1.5 1.5 0 0 0-2.12-2.121C.787 22.48.787 41.519 11.856 52.144a1.494 1.494 0 0 0 1.06.439zM50.022 11.856a1.5 1.5 0 0 0 0 2.122c9.904 9.507 9.904 26.537 0 36.044a1.5 1.5 0 0 0 2.122 2.122c11.068-10.625 11.068-29.663 0-40.287a1.5 1.5 0 0 0-2.122 0z" fill="#ffffff" opacity="1" data-original="#000000"></path><path d="M19.242 19.242a1.5 1.5 0 0 0-2.121-2.12c-8.176 7.847-8.176 21.91 0 29.757a1.5 1.5 0 0 0 2.12-2.121 18.106 18.106 0 0 1 0-25.516zM44.758 44.758a1.5 1.5 0 0 0 2.121 2.12c8.176-7.847 8.176-21.91 0-29.757a1.5 1.5 0 0 0-2.12 2.121 18.106 18.106 0 0 1 0 25.516z" fill="#ffffff" opacity="1" data-original="#000000"></path><path d="M24.506 22.385a1.5 1.5 0 0 0-2.122 0 13.586 13.586 0 0 0 0 19.23 1.5 1.5 0 0 0 2.122-2.12 10.635 10.635 0 0 1 0-14.99 1.5 1.5 0 0 0 0-2.12zM39.494 22.385a1.5 1.5 0 0 0 0 2.12 10.635 10.635 0 0 1 0 14.99 1.5 1.5 0 0 0 2.122 2.12 13.65 13.65 0 0 0 0-19.23 1.5 1.5 0 0 0-2.122 0zM32 25.845A6.163 6.163 0 0 0 25.845 32c.289 8.146 12.022 8.144 12.31 0A6.163 6.163 0 0 0 32 25.845zm0 9.31a3.155 3.155 0 0 1 0-6.31 3.155 3.155 0 0 1 0 6.31z" fill="#ffffff" opacity="1" data-original="#000000"></path></g></svg>