<svg xmlns="http://www.w3.org/2000/svg" version="1.1" xmlns:xlink="http://www.w3.org/1999/xlink" width="512" height="512" x="0" y="0" viewBox="0 0 512 512" style="enable-background:new 0 0 512 512" xml:space="preserve" class=""><g><path d="M447.734 421.359 423.2 176.026A53.166 53.166 0 0 0 370.13 128H352v-10.667a96 96 0 0 0-192 0V128h-18.13a53.166 53.166 0 0 0-53.07 48.026L64.266 421.359A53.336 53.336 0 0 0 117.339 480h277.322a53.336 53.336 0 0 0 53.073-58.641zm-266.4-304.026a74.667 74.667 0 0 1 149.333 0V128H181.333zm237.057 330.808a31.648 31.648 0 0 1-23.729 10.526H117.339a32 32 0 0 1-31.844-35.182l24.536-245.333a31.9 31.9 0 0 1 31.839-28.818H160v23.2a32 32 0 1 0 21.333 0v-23.2h149.334v23.2a32 32 0 1 0 21.333 0v-23.2h18.13a31.9 31.9 0 0 1 31.839 28.818l24.536 245.333a31.628 31.628 0 0 1-8.114 24.656zM170.667 192A10.667 10.667 0 1 1 160 202.667 10.679 10.679 0 0 1 170.667 192zm170.667 0a10.667 10.667 0 1 1-10.667 10.667A10.679 10.679 0 0 1 341.333 192z" fill="#000000" opacity="1" data-original="#000000" class=""></path></g></svg>