<svg xmlns="http://www.w3.org/2000/svg" version="1.1" xmlns:xlink="http://www.w3.org/1999/xlink" width="512" height="512" x="0" y="0" viewBox="0 0 55.668 55.668" style="enable-background:new 0 0 512 512" xml:space="preserve"><g><path d="M27.833 0C12.487 0 0 12.486 0 27.834s12.487 27.834 27.833 27.834c15.349 0 27.834-12.486 27.834-27.834S43.182 0 27.833 0zm0 51.957c-13.301 0-24.122-10.821-24.122-24.123S14.533 3.711 27.833 3.711c13.303 0 24.123 10.821 24.123 24.123S41.137 51.957 27.833 51.957z" style="" fill="#ffffff" data-original="#010002" opacity="1"></path><path d="M41.618 25.819H29.689V10.046a1.856 1.856 0 0 0-1.855-1.856 1.856 1.856 0 0 0-1.854 1.856v19.483h15.638a1.856 1.856 0 0 0 0-3.71z" style="" fill="#ffffff" data-original="#010002" opacity="1"></path></g></svg>